<svg id="SvgjsSvg1012" width="288" height="288" xmlns="http://www.w3.org/2000/svg" version="1.1" xmlns:xlink="http://www.w3.org/1999/xlink" xmlns:svgjs="http://svgjs.com/svgjs"><defs id="SvgjsDefs1013"></defs><g id="SvgjsG1014"><svg xmlns="http://www.w3.org/2000/svg" id="Layer_1" x="0" y="0" version="1.1" viewBox="0 0 29 29" xml:space="preserve" width="288" height="288"><path d="M14.5 27.065a12.465 12.465 0 0 1-8.839-3.655c-4.874-4.874-4.874-12.804 0-17.678 2.361-2.361 5.5-3.662 8.839-3.662s6.478 1.3 8.839 3.662c4.874 4.874 4.874 12.804 0 17.678a12.465 12.465 0 0 1-8.839 3.655zm0-22.995a10.43 10.43 0 0 0-7.425 3.076c-4.093 4.094-4.093 10.755 0 14.85 4.094 4.093 10.755 4.093 14.85 0 4.093-4.094 4.093-10.755 0-14.85A10.434 10.434 0 0 0 14.5 4.07zm8.132 18.633h.01-.01z" fill="#10e48f" class="color000 svgShape"></path><path d="M13 19.369a.997.997 0 0 1-.707-.293L8.05 14.833a.999.999 0 1 1 1.414-1.414L13 16.955l6.538-6.538a.999.999 0 1 1 1.414 1.414l-7.245 7.245a.997.997 0 0 1-.707.293z" fill="#10e48f" class="color000 svgShape"></path></svg></g></svg>