<?xml version="1.0" encoding="UTF-8"?> <svg xmlns="http://www.w3.org/2000/svg" width="120" height="120"><g fill="none" fill-rule="evenodd"><circle fill="#FFEEE5" fill-rule="nonzero" cx="60" cy="60" r="60"></circle><path d="M80.459 59.876H69.704c-4.523 0-7.4 4.853-5.248 8.845l5.126 9.505c1.896 3.52-.1 7.894-3.99 8.737-1.879.41-3.83.627-5.835.632-14.58.036-27.043-11.917-27.642-26.552-.645-15.845 11.942-28.887 27.573-28.887 12.593 0 23.213 8.471 26.52 20.05 1.096 3.836-1.779 7.67-5.75 7.67z" fill="#FFBF9E"></path><path d="M53.616 53.882c0 3.307-2.67 5.993-5.965 5.993-3.294 0-5.965-2.686-5.965-5.993 0-3.31 2.67-5.993 5.965-5.993 3.294 0 5.965 2.684 5.965 5.993m-.493 17.13c0 2.484-2.006 4.496-4.475 4.496-2.472 0-4.473-2.012-4.473-4.496 0-2.484 2-4.496 4.473-4.496 2.47 0 4.475 2.012 4.475 4.496M69.955 45.05c0 3.31-2.673 5.992-5.965 5.992-3.294 0-5.965-2.683-5.965-5.993 0-3.31 2.67-5.993 5.965-5.993 3.292 0 5.965 2.684 5.965 5.993" fill="#FF6D23"></path></g></svg> 